<svg width="2516" height="1228" viewBox="0 0 2516 1228" fill="none" xmlns="http://www.w3.org/2000/svg">
<path d="M232.43 6.84998H2282.91C2410.27 6.84998 2513.67 110.25 2513.67 237.61V990.07C2513.67 1117.43 2410.27 1220.83 2282.91 1220.83H232.43C105.07 1220.83 1.66992 1117.43 1.66992 990.07V237.61C1.66992 110.25 105.07 6.84998 232.43 6.84998Z" fill="#D43B4A"/>
<path d="M312.6 646.11C312.6 622.68 286.09 611.58 286.09 597.39C286.09 585.67 294.72 580.75 326.79 572.12C355.15 564.1 370.57 560.4 384.75 560.4C400.16 560.4 406.95 569.64 406.95 593.08V711.48C439.02 685.58 467.37 662.77 501.29 662.15C550.63 660.92 566.04 698.53 566.04 763.89V875.51C566.04 898.94 592.56 909.43 592.56 923.61C592.56 937.79 578.38 942.73 546.92 942.73H491.42C459.98 942.73 445.78 937.79 445.78 923.61C445.78 909.43 471.69 898.94 471.69 875.51V756.49C471.69 734.3 468.61 723.19 455.64 723.19C445.17 723.19 430.97 726.9 406.93 739.22V875.51C406.93 898.94 432.83 909.43 432.83 923.61C432.83 937.79 418.65 942.73 387.19 942.73H331.08C299.62 942.73 285.44 937.79 285.44 923.61C285.44 909.43 312.57 898.94 312.57 875.51V646.11H312.6Z" fill="white"/>
<path d="M772.61 732.44C772.61 700.37 767.06 690.51 757.19 690.51C749.79 690.51 741.78 695.44 720.2 726.89C699.85 757.1 688.13 763.27 673.94 763.27C651.13 763.27 615.36 742.3 623.38 721.95C635.1 692.35 697.38 663.37 757.19 662.13C829.34 660.28 866.96 700.37 866.96 776.82V857C866.96 893.99 893.48 881.67 893.48 901.39C893.48 921.11 867.58 942.71 829.97 942.71C805.91 942.71 780.02 930.37 773.85 900.78C759.05 929.14 734.38 945.17 698 945.17C646.82 945.17 607.96 913.73 607.96 861.92C607.96 796.56 670.25 770.66 726.98 770.66C743.01 770.66 759.05 772.5 772.62 776.82V732.43L772.61 732.44ZM772.61 798.42C732.52 792.25 705.39 816.29 705.39 848.98C705.39 877.35 718.34 892.76 737.46 892.76C757.81 892.76 772.61 866.86 772.61 827.4V798.42Z" fill="white"/>
<path d="M1032.82 694.83V729.98C1050.08 699.76 1064.89 676.32 1087.09 662.14C1119.77 640.56 1159.85 657.82 1159.85 703.46C1159.85 749.1 1132.71 765.74 1124.7 758.96C1112.98 749.71 1102.5 741.07 1084 741.07C1069.81 741.07 1053.78 747.85 1032.82 766.36V875.51C1032.82 898.94 1059.34 909.43 1059.34 923.61C1059.34 937.79 1045.15 942.73 1013.7 942.73H957.58C926.14 942.73 911.94 937.79 911.94 923.61C911.94 909.43 938.46 898.94 938.46 875.51V754.03C938.46 730.6 911.94 717.65 911.94 703.47C911.94 691.13 919.34 687.44 952.03 675.72C980.4 665.84 994.58 662.15 1008.76 662.15C1024.18 662.15 1032.82 671.4 1032.82 694.84V694.83Z" fill="white"/>
<path d="M1384.91 739.84C1396.63 710.24 1350.99 698.52 1350.99 683.11C1350.99 668.92 1365.17 663.99 1396.63 663.99H1452.13C1483.57 663.99 1495.91 668.92 1495.91 683.11C1495.91 699.75 1448.42 706.54 1428.07 749.08L1354.07 929.77C1348.51 942.1 1343.58 942.72 1330.01 942.72H1315.83C1301.65 942.72 1289.93 943.34 1281.29 921.75L1211 750.94C1196.2 710.24 1169.06 701.61 1169.06 683.11C1169.06 668.92 1183.25 663.99 1214.7 663.99H1270.82C1302.26 663.99 1316.44 668.92 1316.44 683.11C1316.44 694.83 1290.54 697.29 1297.94 714.55L1346.66 829.86L1384.9 739.83L1384.91 739.84Z" fill="white"/>
<path d="M1597.63 830.49C1613.05 862.56 1639.57 879.82 1670.41 879.82C1701.25 879.82 1719.74 867.48 1738.24 855.15C1746.26 850.21 1754.89 857.61 1751.19 866.87C1731.46 908.19 1682.74 945.18 1627.24 945.18C1535.36 945.18 1483.55 889.68 1483.55 802.12C1483.55 714.56 1548.3 662.14 1626.01 662.14C1721.6 662.14 1751.81 718.87 1751.81 753.41C1751.81 771.91 1745.03 776.22 1689.53 796.57L1597.64 830.49H1597.63ZM1650.67 769.44C1649.44 713.94 1632.78 690.51 1617.37 690.51C1597.63 690.51 1583.45 720.1 1583.45 762.04C1583.45 773.13 1584.07 783.62 1585.91 793.48L1650.66 769.44H1650.67Z" fill="white"/>
<path d="M1895.45 945.81C1827.61 945.81 1778.89 922.38 1772.11 888.46C1767.17 866.26 1799.25 839.13 1820.83 839.13C1833.78 839.13 1833.16 858.86 1846.1 887.85C1854.12 905.11 1869.53 916.83 1892.97 916.83C1916.41 916.83 1944.15 908.2 1944.15 892.16C1944.15 876.12 1923.19 865.02 1872.01 844.67C1810.34 819.38 1776.42 797.19 1776.42 747.85C1776.42 694.83 1824.52 662.14 1890.5 662.14C1956.48 662.14 2002.12 686.81 2008.29 716.41C2012.61 737.99 1987.32 754.02 1963.89 754.02C1950.94 754.02 1950.94 746.62 1934.29 717.64C1925.66 703.46 1912.71 691.12 1891.74 691.12C1863.38 691.12 1843.64 699.75 1843.64 712.09C1843.64 728.12 1860.29 737.36 1922.57 763.27C1988.55 791.02 2015.07 818.15 2015.07 860.09C2015.07 908.19 1968.2 945.8 1895.44 945.8L1895.45 945.81Z" fill="white"/>
<path d="M2120.51 590.61C2135.92 590.61 2143.32 600.47 2143.32 623.91V664H2202.53C2210.54 664 2217.33 670.78 2217.33 678.8V683.73C2217.33 691.75 2210.54 698.53 2202.53 698.53H2143.32V836.67C2143.32 865.03 2154.43 879.83 2169.84 879.83C2190.19 879.83 2205.61 866.26 2216.71 855.77C2223.49 849.61 2232.74 858.25 2229.05 867.49C2209.31 908.81 2179.1 945.19 2129.15 945.19C2084.75 945.19 2047.75 916.83 2047.75 855.77V698.53H2035.41C2027.4 698.53 2020.61 691.75 2020.61 683.73C2020.61 673.87 2026.78 667.09 2061.93 634.4C2097.08 601.71 2106.33 590.62 2120.51 590.62V590.61Z" fill="white"/>
<path d="M603.9 423.08C592.79 382.38 565.66 373.75 565.66 355.25C565.66 341.06 579.84 336.13 611.3 336.13H667.41C692.08 336.13 707.5 341.06 707.5 355.25C707.5 366.97 685.91 369.43 690.85 386.69L732.17 497.08L765.47 411.98C775.96 380.52 731.55 370.66 731.55 355.25C731.55 341.06 745.74 336.13 777.19 336.13H833.31C864.75 336.13 877.09 341.06 877.09 355.25C877.09 371.89 826.52 379.29 808.64 421.22L740.8 601.91C735.25 614.24 730.31 614.86 716.74 614.86H702.56C688.38 614.86 677.27 615.48 668.03 593.89L627.33 485.37L582.93 601.92C577.99 614.25 573.07 614.87 559.5 614.87H545.32C531.13 614.87 519.41 615.49 510.17 593.9L446.65 423.09C434.32 382.39 404.1 373.76 404.1 355.26C404.1 341.07 418.29 336.14 449.74 336.14H505.86C537.3 336.14 551.48 341.07 551.48 355.26C551.48 366.98 528.67 368.21 533.61 386.7L574.92 497.7L603.91 423.08H603.9Z" fill="white"/>
<path d="M903.56 318.25C903.56 294.82 877.04 283.72 877.04 269.53C877.04 257.81 885.67 252.89 917.74 244.26C946.11 236.24 961.52 232.54 975.71 232.54C991.12 232.54 997.9 241.78 997.9 265.22V383.62C1029.97 357.72 1058.34 334.91 1092.26 334.29C1141.59 333.06 1157 370.67 1157 436.03V547.65C1157 571.08 1183.52 581.57 1183.52 595.75C1183.52 609.93 1169.34 614.87 1137.9 614.87H1082.4C1050.94 614.87 1036.76 609.93 1036.76 595.75C1036.76 581.57 1062.66 571.08 1062.66 547.65V428.63C1062.66 406.44 1059.58 395.33 1046.63 395.33C1036.14 395.33 1021.96 399.04 997.91 411.36V547.65C997.91 571.08 1023.82 581.57 1023.82 595.75C1023.82 609.93 1009.63 614.87 978.18 614.87H922.06C890.62 614.87 876.42 609.93 876.42 595.75C876.42 581.57 903.56 571.08 903.56 547.65V318.25Z" fill="white"/>
<path d="M1524.48 318.25C1524.48 294.82 1498.58 283.72 1498.58 269.53C1498.58 257.81 1507.21 252.89 1539.28 244.26C1567.65 236.24 1582.45 232.54 1597.25 232.54C1612.05 232.54 1618.83 241.78 1618.83 265.22V547.65C1618.83 571.08 1645.35 581.57 1645.35 595.75C1645.35 609.93 1631.16 614.87 1599.71 614.87H1543.59C1512.15 614.87 1497.95 609.93 1497.95 595.75C1497.95 581.57 1524.47 571.08 1524.47 547.65V318.25H1524.48Z" fill="white"/>
<path d="M1774.84 502.64C1790.26 534.71 1816.78 551.97 1847.62 551.97C1878.46 551.97 1896.95 539.63 1915.45 527.3C1923.47 522.36 1932.1 529.76 1928.4 539.02C1908.67 580.34 1859.95 617.33 1804.45 617.33C1712.57 617.33 1660.76 561.83 1660.76 474.27C1660.76 386.71 1725.51 334.29 1803.22 334.29C1898.81 334.29 1929.02 391.02 1929.02 425.56C1929.02 444.06 1922.24 448.37 1866.74 468.72L1774.85 502.64H1774.84ZM1827.88 441.59C1826.65 386.09 1809.99 362.66 1794.58 362.66C1774.84 362.66 1760.66 392.25 1760.66 434.19C1760.66 445.28 1761.28 455.77 1763.12 465.63L1827.87 441.59H1827.88Z" fill="white"/>
<path d="M1472.5 411.78V523.56C1472.5 536.29 1465.69 548.05 1454.66 554.44L1357.89 610.33C1346.86 616.67 1333.25 616.67 1322.21 610.33L1225.39 554.44C1214.36 548.05 1207.6 536.29 1207.6 523.56V411.78C1207.6 399.04 1214.35 387.24 1225.39 380.9L1322.21 325.01C1333.24 318.62 1346.85 318.62 1357.89 325.01L1454.66 380.9C1465.69 387.24 1472.5 399.05 1472.5 411.78Z" fill="#F0D8A8"/>
<path d="M1363.48 367.64C1363.48 380.59 1340.04 467.66 1340.04 467.66C1340.04 467.66 1316.6 380.59 1316.6 367.64C1316.6 354.69 1327.09 344.2 1340.04 344.2C1352.99 344.2 1363.48 354.69 1363.48 367.64Z" fill="#D43B4A"/>
<path d="M1438.38 437.95C1427.17 444.42 1340.04 467.66 1340.04 467.66C1340.04 467.66 1403.72 403.83 1414.94 397.35C1426.15 390.88 1440.49 394.72 1446.96 405.93C1453.43 417.14 1449.59 431.48 1438.38 437.95Z" fill="#D43B4A"/>
<path d="M1241.7 437.95C1252.91 444.42 1340.04 467.66 1340.04 467.66C1340.04 467.66 1276.36 403.83 1265.14 397.35C1253.93 390.88 1239.59 394.72 1233.12 405.93C1226.65 417.14 1230.49 431.48 1241.7 437.95Z" fill="#D43B4A"/>
<path d="M1316.59 567.67C1316.59 554.72 1340.03 467.65 1340.03 467.65C1340.03 467.65 1363.47 554.72 1363.47 567.67C1363.47 580.62 1352.98 591.11 1340.03 591.11C1327.08 591.11 1316.59 580.62 1316.59 567.67Z" fill="#D43B4A"/>
<path d="M1241.7 497.36C1252.91 490.89 1340.04 467.65 1340.04 467.65C1340.04 467.65 1276.36 531.48 1265.14 537.96C1253.93 544.43 1239.59 540.59 1233.12 529.38C1226.65 518.17 1230.49 503.83 1241.7 497.36Z" fill="#D43B4A"/>
<path d="M1438.38 497.36C1427.17 490.89 1340.04 467.65 1340.04 467.65C1340.04 467.65 1403.72 531.48 1414.94 537.96C1426.15 544.43 1440.49 540.59 1446.96 529.38C1453.43 518.17 1449.59 503.83 1438.38 497.36Z" fill="#D43B4A"/>
</svg>
