<svg width="82" height="30" viewBox="0 0 82 30" fill="none" xmlns="http://www.w3.org/2000/svg">
<g clip-path="url(#clip0_13_1065)">
<path d="M68.9762 5.22284C70.5648 5.22284 72.1068 5.53372 73.5586 6.14615C74.9606 6.73993 76.2197 7.58864 77.2985 8.66739C78.3803 9.74926 79.229 11.0083 79.8197 12.4073C80.4322 13.8591 80.743 15.398 80.743 16.9897C80.743 18.5814 80.4322 20.1202 79.8197 21.5721C79.2259 22.9741 78.3772 24.2332 77.2985 25.312C76.2166 26.3938 74.9575 27.2425 73.5586 27.8332C72.1068 28.4456 70.5679 28.7565 68.9762 28.7565H18.0757C18.2031 28.6135 18.3523 28.4456 18.5296 28.2498C19.17 27.5441 20.0031 26.6487 20.8083 25.7814C24.6197 21.684 24.6197 21.6063 24.6197 21.2301C24.6197 21.2177 24.6197 21.2083 24.6197 21.1959L24.141 12.255C24.1347 11.9814 24.0197 11.7607 22.9161 10.5234C22.2726 9.80211 21.4083 8.86636 20.572 7.9617C19.8228 7.1503 19.0487 6.31092 18.4518 5.64874C18.3026 5.48398 18.1751 5.34097 18.0663 5.21351H68.9762M68.9762 4.60107H16.829C16.4 4.60107 23.5192 11.857 23.5192 12.286L23.9979 21.2394C23.9979 21.6684 16.4 29.3845 16.829 29.3845H68.9731C75.8156 29.3845 81.3648 23.8353 81.3648 16.9928C81.3648 10.1472 75.8187 4.60107 68.9762 4.60107Z" fill="#ACB6BF"/>
<path d="M13.6425 3.98535C6.46116 3.98535 0.635254 9.81126 0.635254 16.9926C0.635254 24.174 6.46116 29.9967 13.6425 29.9967C20.8239 29.9967 26.6467 24.174 26.6467 16.9926C26.6467 9.81126 20.8239 3.98535 13.6425 3.98535ZM13.5928 8.06722C18.5233 8.06722 22.5182 12.062 22.5182 16.9926C22.5182 21.9232 18.5264 25.918 13.5928 25.918C8.65909 25.918 4.65494 21.9232 4.65494 16.9926C4.65494 12.062 8.65909 8.06722 13.5928 8.06722Z" fill="#FEB511"/>
<path d="M28.9378 11.0547V22.3832H31.1979V14.5272L35.2052 22.3832H37.6456V11.0547H35.3886V18.121L31.6829 11.0547H29.4228H28.9378Z" fill="black"/>
<path d="M42.8062 13.8589C40.4218 13.8558 38.485 15.7864 38.4819 18.1708V18.1832C38.4819 20.5739 40.4124 22.52 42.8062 22.52C45.2 22.52 47.143 20.5739 47.143 18.1801C47.143 15.7895 45.2 13.8589 42.8062 13.8589ZM42.8187 20.3905C41.5969 20.3905 40.5959 19.405 40.5959 18.1801C40.599 16.9553 41.5907 15.9604 42.8187 15.9573C44.0435 15.9573 45.029 16.9553 45.029 18.1801C45.029 19.405 44.0435 20.3905 42.8187 20.3905Z" fill="black"/>
<path d="M47.7275 14.0424V22.3834H50.1803V18.9979C50.1803 17.7979 50.4415 17.086 50.8767 16.573C51.3275 16.0383 51.7254 15.7274 52.9378 15.7119L53.858 15.7243L53.8705 19.5388C53.8736 20.1233 53.9016 20.6145 54.0321 21.0341C54.3337 21.9979 55.0643 22.5264 56.4819 22.5264C57.1285 22.5264 57.7596 22.4393 58.3596 22.2186L58.0643 20.5243C57.7845 20.6331 57.4487 20.7015 57.1938 20.7015C56.4726 20.7077 56.3078 20.3937 56.3109 19.6414V15.7212H58.0767L58.0829 14.0393H56.3109L56.3047 11.6766L54.3244 11.6704L53.9016 14.0362H52.7482C52.3814 14.0362 52.0954 14.0393 51.8187 14.1108C50.6373 14.4093 50.1523 15.2766 49.8539 15.8207L49.1606 14.0362L47.7275 14.0424Z" fill="black"/>
<path d="M62.6902 13.8589C60.3057 13.8558 58.3689 15.7864 58.3658 18.1708V18.1832C58.3658 20.5739 60.2964 22.52 62.6902 22.52C65.0808 22.52 67.0238 20.577 67.0238 18.1832C67.027 15.7895 65.0839 13.8589 62.6902 13.8589ZM62.7026 20.3905C61.4777 20.3905 60.4798 19.405 60.4798 18.1801C60.4829 16.9553 61.4777 15.9604 62.7026 15.9573C63.9275 15.9573 64.913 16.9553 64.913 18.1801C64.913 19.405 63.9275 20.3905 62.7026 20.3905Z" fill="black"/>
<path d="M72.4145 13.8589C71.2922 13.8652 70.3689 14.4061 69.5109 15.3263L69.0384 14.0393H67.6052V22.3833H69.9959V16.6507C70.2415 16.374 70.7948 15.861 71.5005 15.861C72.399 15.861 72.7254 16.4393 72.7285 17.089L72.7409 22.3833H75.1814V17.0144C75.1845 14.9284 73.9689 13.8496 72.4145 13.8589Z" fill="black"/>
<path d="M78.8373 4.53906H77.3358V4.91834H77.8736V6.75875H78.2871V4.91834H78.8373V4.53906Z" fill="#ACB6BF"/>
<path d="M79.7171 4.53906H79.1202V6.75875H79.5057V4.99917L79.9534 6.75875H80.2518L80.7399 5.03025V6.75875H81.0539V4.53906H80.4912L80.115 6.00642L79.7171 4.53906Z" fill="#ACB6BF"/>
<path d="M26.7679 1.02295V2.01777H27.7658V1.02295H26.7679Z" fill="black"/>
<path d="M26.7679 2.01758H24.9213V3.0124H26.7679V2.01758Z" fill="black"/>
<path d="M24.9244 3.01562H24.001V4.95863H24.9244V3.01562Z" fill="black"/>
<path d="M25.8695 4.9585H24.9213V5.90668H25.8695V4.9585Z" fill="black"/>
<path d="M25.8694 4.9587H26.914V4.02295H25.8694V4.9587Z" fill="black"/>
<path d="M24.9244 5.90381H24.001V6.87376H23.0404V5.90381H21.4736V6.59707H20.6249V7.44578H21.5606V8.39396H20.6124L20.6249 7.44578H19.6052V8.94111H18.657V9.87687H18.0135V10.8251H17.3327C15.8715 13.2251 14.6964 15.4385 14.0187 17.08C12.1534 14.5991 11.2798 13.7038 9.70986 12.8302C9.14717 12.5162 8.64665 12.3732 8.28913 12.5753C7.91608 12.7867 7.80727 13.452 8.2767 13.9712C11.1959 17.2043 11.7213 18.9266 12.7814 21.3919C13.0985 22.1256 13.6954 22.4427 14.3731 22.4613C14.7337 22.4706 15.1814 22.3618 15.4767 22.0105C15.6135 21.8489 15.657 21.6282 15.7689 21.3546C16.6549 19.2126 17.6373 17.0675 19.058 15.0251L19.0705 13.9556H19.8228L19.8104 13.0074H20.6249L20.6124 11.8789H21.5606V10.8468H20.6L20.6124 9.87687H21.5606V10.8468H22.5088V9.86443H23.2487V8.71106H24.1099V7.92143H24.9244V5.90381Z" fill="black"/>
<path d="M24.0011 4.9585H23.0404V5.90668H24.0011V4.9585Z" fill="black"/>
<path d="M23.0404 4.04785H22.0829V4.95873H23.0404V4.04785Z" fill="black"/>
<path d="M24.9213 3.01847H25.8663V4.0164H24.9213V3.01847ZM27.7596 2.02055H28.7824V3.01847H27.7596V2.02055ZM27.7596 0.00292969H28.7824V1.02573H27.7596V0.00292969Z" fill="#FEB511"/>
</g>
<defs>
<clipPath id="clip0_13_1065">
<rect width="80.7295" height="30" fill="white" transform="translate(0.635254)"/>
</clipPath>
</defs>
</svg>
