<svg width="84" height="64" viewBox="0 0 84 64" fill="none" xmlns="http://www.w3.org/2000/svg">
<path d="M19.0833 25.6665C18.1542 25.6665 17.2625 25.8082 16.375 25.9373C16.6625 24.9707 16.9583 23.9873 17.4333 23.104C17.9083 21.8207 18.65 20.7082 19.3875 19.5873C20.0042 18.3748 21.0917 17.554 21.8917 16.5165C22.7292 15.5082 23.8708 14.8373 24.775 13.9998C25.6625 13.1248 26.825 12.6873 27.75 12.0707C28.7167 11.5165 29.5583 10.904 30.4583 10.6123L32.7042 9.68734L34.6792 8.8665L32.6583 0.791504L30.1708 1.3915C29.375 1.5915 28.4042 1.82484 27.3 2.104C26.1708 2.31234 24.9667 2.88317 23.625 3.404C22.3 3.99567 20.7667 4.39567 19.3417 5.34567C17.9083 6.254 16.2542 7.01234 14.7958 8.229C13.3833 9.48317 11.6792 10.5707 10.4208 12.1665C9.04583 13.6582 7.6875 15.2248 6.63333 17.0082C5.4125 18.7082 4.58333 20.5748 3.70833 22.4207C2.91666 24.2665 2.27916 26.154 1.75833 27.9873C0.770828 31.6623 0.329161 35.154 0.158328 38.1415C0.0166614 41.1332 0.0999947 43.6207 0.274995 45.4207C0.337495 46.2707 0.454162 47.0957 0.537495 47.6665L0.641661 48.3665L0.749995 48.3415C1.49108 51.8033 3.19709 54.9845 5.67068 57.5173C8.14426 60.05 11.2843 61.8306 14.7277 62.6533C18.171 63.4759 21.7769 63.3069 25.1281 62.1658C28.4794 61.0247 31.4392 58.9581 33.665 56.2052C35.8909 53.4522 37.2919 50.1253 37.7059 46.6094C38.1199 43.0935 37.5301 39.5322 36.0047 36.3374C34.4793 33.1427 32.0806 30.4451 29.086 28.5567C26.0915 26.6683 22.6236 25.6663 19.0833 25.6665V25.6665ZM64.9167 25.6665C63.9875 25.6665 63.0958 25.8082 62.2083 25.9373C62.4958 24.9707 62.7917 23.9873 63.2667 23.104C63.7417 21.8207 64.4833 20.7082 65.2208 19.5873C65.8375 18.3748 66.925 17.554 67.725 16.5165C68.5625 15.5082 69.7042 14.8373 70.6083 13.9998C71.4958 13.1248 72.6583 12.6873 73.5833 12.0707C74.55 11.5165 75.3917 10.904 76.2917 10.6123L78.5375 9.68734L80.5125 8.8665L78.4917 0.791504L76.0042 1.3915C75.2083 1.5915 74.2375 1.82484 73.1333 2.104C72.0042 2.31234 70.8 2.88317 69.4583 3.404C68.1375 3.99984 66.6 4.39567 65.175 5.34984C63.7417 6.25817 62.0875 7.0165 60.6292 8.23317C59.2167 9.48734 57.5125 10.5748 56.2542 12.1665C54.8792 13.6582 53.5208 15.2248 52.4667 17.0082C51.2458 18.7082 50.4167 20.5748 49.5417 22.4207C48.75 24.2665 48.1125 26.154 47.5917 27.9873C46.6042 31.6623 46.1625 35.154 45.9917 38.1415C45.85 41.1332 45.9333 43.6207 46.1083 45.4207C46.1708 46.2707 46.2875 47.0957 46.3708 47.6665L46.475 48.3665L46.5833 48.3415C47.3244 51.8033 49.0304 54.9845 51.504 57.5173C53.9776 60.05 57.1177 61.8306 60.561 62.6533C64.0043 63.4759 67.6102 63.3069 70.9615 62.1658C74.3128 61.0247 77.2725 58.9581 79.4984 56.2052C81.7242 53.4522 83.1252 50.1253 83.5392 46.6094C83.9533 43.0935 83.3635 39.5322 81.838 36.3374C80.3126 33.1427 77.9139 30.4451 74.9194 28.5567C71.9249 26.6683 68.4569 25.6663 64.9167 25.6665V25.6665Z" fill="#F0D8A8"/>
</svg>
