<svg width="17" height="16" viewBox="0 0 17 16" fill="none" xmlns="http://www.w3.org/2000/svg">
<path d="M16.2146 6.06846C16.0802 5.66533 15.7443 5.37978 15.3244 5.32939L11.1419 4.72471L9.27749 0.94541C8.90796 0.206348 7.68179 0.206348 7.31226 0.94541L5.44781 4.72471L1.28218 5.32939C0.862259 5.39658 0.526321 5.68213 0.391946 6.06846C0.257571 6.47158 0.375149 6.8915 0.660696 7.19385L3.68413 10.1501L2.97866 14.3157C2.91148 14.7188 3.07945 15.1388 3.41538 15.3907C3.75132 15.6427 4.20484 15.6595 4.57437 15.4747L8.30327 13.5095L12.049 15.4747C12.2169 15.5587 12.3849 15.6091 12.5529 15.6091C12.7712 15.6091 13.0064 15.5419 13.1912 15.4075C13.5271 15.1556 13.6951 14.7524 13.6279 14.3325L12.9224 10.1669L15.9459 7.21064C16.2482 6.9083 16.349 6.47158 16.2146 6.06846Z" fill="#FFD800"/>
</svg>
